<?xml version="1.0" encoding="UTF-8" standalone="no"?>
<svg
   xmlns:dc="http://purl.org/dc/elements/1.1/"
   xmlns:cc="http://creativecommons.org/ns#"
   xmlns:rdf="http://www.w3.org/1999/02/22-rdf-syntax-ns#"
   xmlns:svg="http://www.w3.org/2000/svg"
   xmlns="http://www.w3.org/2000/svg"
   width="99.077438"
   height="94.990234"
   viewBox="0 0 99.077438 94.990234"
   fill="none"
   version="1.1"
   id="svg893">
  <metadata
     id="metadata899">
    <rdf:RDF>
      <cc:Work
         rdf:about="">
        <dc:format>image/svg+xml</dc:format>
        <dc:type
           rdf:resource="http://purl.org/dc/dcmitype/StillImage" />
        <dc:title></dc:title>
      </cc:Work>
    </rdf:RDF>
  </metadata>
  <defs
     id="defs897" />
  <path
     d="m 35.987308,56.465232 c -0.1925,-2.2007 1.4354,-4.1408 3.6362,-4.3334 l 52.6724,-4.6082 c 2.201,-0.1926 4.141,1.4354 4.333,3.6361 l 2.433,27.8095 c 0.193,2.201 -1.435,4.141 -3.636,4.334 l -52.6722,4.608 c -2.2007,0.192 -4.1408,-1.436 -4.3334,-3.636 z"
     fill="#f9c20a"
     id="path885" />
  <g
     style="mix-blend-mode:multiply"
     id="g889"
     transform="translate(-31.912092,-31.009768)">
    <path
       d="M 60.7777,33.7749 35.1341,51.0917 c -3.2697,2.208 -1.7068,7.315 2.2386,7.315 H 88.66 c 3.9454,0 5.5082,-5.107 2.2386,-7.315 L 65.2548,33.7749 c -1.3526,-0.9134 -3.1245,-0.9134 -4.4771,0 z"
       fill="#faa61a"
       id="path887" />
  </g>
  <path
     fill-rule="evenodd"
     clip-rule="evenodd"
     d="M 47.065308,0.80293162 2.2916078,29.793132 c -4.1818,2.7076 -2.26430002,9.197 2.7175,9.197 h 2.6368 v 36.0001 h -0.0586 c -4.1421,0 -7.50000002,8.358 -7.50000002,12.5 0,4.142 3.35780002,7.5 7.50000002,7.5 h 1.2009 v -5 h -1.2009 c -1.3807,0 -2.5,-1.12 -2.5,-2.5 0,-1.381 1.1193,-7.5 2.5,-7.5 H 88.586908 c 1.381,0 2.5,6.119 2.5,7.5 0,1.38 -1.119,2.5 -2.5,2.5 h -75.7987 v 5 h 75.7987 c 4.143,0 7.5,-3.358 7.5,-7.5 0,-3.974 -3.09,-12.226 -6.998,-12.484 v -32.013 h -5 v 31.997 h -14.117 v -31.997 h -5 v 31.997 h -14.1095 v -31.997 h -5 v 31.997 h -14.1095 v -31.997 h -5 v 31.997 h -14.107 v -36.0001 h 14.107 v 0.0031 h 5 v -0.0031 h 14.1095 v 0.0031 h 5 v -0.0031 h 14.1095 v 0.0031 h 5 v -0.0031 h 14.117 v 0.0031 h 5 v -0.0031 h 2.891 c 4.911,0 6.879,-6.3401 2.831,-9.1211 L 52.614108,0.87883162 c -1.6645,-1.1435 -3.8536,-1.1735 -5.5488,-0.0759 z M 5.0091078,33.990232 49.782808,5.0000316 91.979908,33.990232 Z"
     fill="#231f20"
     id="path891" />
</svg>
