<?xml version="1.0" encoding="UTF-8" standalone="no"?>
<svg
   xmlns:dc="http://purl.org/dc/elements/1.1/"
   xmlns:cc="http://creativecommons.org/ns#"
   xmlns:rdf="http://www.w3.org/1999/02/22-rdf-syntax-ns#"
   xmlns:svg="http://www.w3.org/2000/svg"
   xmlns="http://www.w3.org/2000/svg"
   width="126.18095"
   height="120.04488"
   viewBox="0 0 126.18095 120.04488"
   fill="none"
   version="1.1"
   id="svg6101">
  <metadata
     id="metadata6107">
    <rdf:RDF>
      <cc:Work
         rdf:about="">
        <dc:format>image/svg+xml</dc:format>
        <dc:type
           rdf:resource="http://purl.org/dc/dcmitype/StillImage" />
        <dc:title></dc:title>
      </cc:Work>
    </rdf:RDF>
  </metadata>
  <defs
     id="defs6105" />
  <path
     d="m 18.168144,110.6938 c 1.794,6.738 8.7051,10.728 15.4365,8.913 l 48.1026,-12.97 c 6.7317,-1.815 10.7337,-8.748 8.9397,-15.485 l -17.7392,-66.6211 c -1.7939,-6.7371 -8.7051,-10.7272 -15.4365,-8.9122 L 9.3686438,28.5884 c -6.7314,1.815 -10.7341,8.7479 -8.94010005,15.485 z"
     fill="#f9c20a"
     id="path6081" />
  <path
     d="m 67.624144,10.4429 v 18.917 c 0.0127,4.6403 -3.2595,7.5262 -7.2391,7.5135 -3.967,0.0254 -7.2013,-2.8732 -7.2139,-7.5135 V 8.6576 c 0,-2.5681 1.6297,-4.8692 4.2197,-4.8819 2.6152,0.0127 4.207,2.3011 4.207,4.8691 l 0.0253,20.4482 c 0,0.8899 -0.6317,1.2713 -1.2381,1.2967 -0.5685,-0.0127 -1.2002,-0.4195 -1.2129,-1.2967 l 0.0127,-17.9128 c -0.0127,-1.1314 -0.8339,-1.9832 -1.9077,-1.9959 -1.0613,0.0254 -1.9077,0.8772 -1.9077,1.9959 v 18.0017 c 0.0126,2.9876 2.3877,5.2251 5.0408,5.2251 2.8553,0 5.003,-2.2121 5.003,-5.2123 l 0.0126,-20.588 C 65.413244,3.3816 61.926344,-9.9997782e-5 57.302344,0 c -4.5229,0 -8.1361,3.3816 -8.1487,8.6067 l 0.0252,20.9058 c 0.0127,6.7506 5.0535,11.4418 11.2188,11.4418 6.1527,-0.0128 11.2062,-4.6912 11.2314,-11.4291 V 10.4556 c 0,-1.0679 -0.9854,-2.0595 -2.0593,-2.0214 -1.0739,-0.0381 -1.9329,0.9026 -1.9456,2.0087 z"
     fill="#f58220"
     id="path6083" />
  <path
     fill-rule="evenodd"
     clip-rule="evenodd"
     d="m 120.90494,52.5305 c 0,-7.0327 -5.046,-13.5178 -11.958,-15.5447 -3.146,-0.9225 -5.595,-3.3885 -6.559,-6.4832 -2.032,-6.5278 -8.613996,-11.5981 -16.089996,-11.5981 h -12.2483 -25.9457 c -2.9135,0 -5.2754,2.3767 -5.2754,5.3086 v 80.6857 c 0,2.933 2.3633,5.31 5.2777,5.308 l 67.525696,-0.029 c 2.913,-0.001 5.273,-2.378 5.273,-5.309 z m 5.276,0 c 0,-9.5482 -6.746,-17.9988 -15.758,-20.6412 -1.425,-0.4179 -2.557,-1.5483 -3.001,-2.9736 -2.728,-8.7656 -11.365996,-15.3198 -21.123996,-15.3198 h -12.2483 -25.9457 c -5.8271,0 -10.5509,4.7535 -10.5509,10.6172 v 80.6857 c 0,5.865 4.7266,10.62 10.5555,10.617 l 67.525396,-0.03 c 5.826,-0.002 10.547,-4.755 10.547,-10.617 z"
     fill="#231f20"
     id="path6085" />
  <path
     d="m 84.135144,50.8199 c 0,-1.4461 -1.1724,-2.6185 -2.6186,-2.6185 h -29.5619 c -1.4462,0 -2.6186,1.1724 -2.6186,2.6185 v 0 c 0,1.4462 1.1724,2.6186 2.6186,2.6186 h 29.5619 c 1.4462,0 2.6186,-1.1724 2.6186,-2.6186 z"
     fill="#231f20"
     id="path6087" />
  <path
     d="m 67.701544,85.8688 c 0,-1.4462 -1.1724,-2.6186 -2.6186,-2.6186 h -13.1297 c -1.4462,0 -2.6186,1.1724 -2.6186,2.6186 v 0 c 0,1.446 1.1724,2.619 2.6186,2.619 h 13.1297 c 1.4462,0 2.6186,-1.173 2.6186,-2.619 z"
     fill="#231f20"
     id="path6089" />
  <path
     d="m 105.27594,85.8688 c 0,-1.4462 -1.173,-2.6186 -2.619,-2.6186 H 89.526944 c -1.446,0 -2.618,1.1724 -2.618,2.6186 v 0 c 0,1.446 1.172,2.619 2.618,2.619 h 13.129996 c 1.446,0 2.619,-1.173 2.619,-2.619 z"
     fill="#231f20"
     id="path6091" />
  <path
     d="m 100.37894,62.3825 c 0,-1.4462 -1.171996,-2.6186 -2.617996,-2.6186 h -45.8055 c -1.4462,0 -2.6186,1.1724 -2.6186,2.6186 v 0 c 0,1.4461 1.1724,2.6185 2.6186,2.6185 h 45.8055 c 1.446,0 2.617996,-1.1724 2.617996,-2.6185 z"
     fill="#231f20"
     id="path6093" />
  <path
     d="m 76.275744,97.4308 c 0,-1.446 -1.1724,-2.618 -2.6186,-2.618 h -21.7029 c -1.4462,0 -2.6186,1.172 -2.6186,2.618 v 0 c 0,1.447 1.1724,2.619 2.6186,2.619 h 21.7029 c 1.4462,0 2.6186,-1.172 2.6186,-2.619 z"
     fill="#231f20"
     id="path6095" />
  <path
     d="m 113.84994,97.4308 c 0,-1.446 -1.172,-2.618 -2.619,-2.618 H 89.528944 c -1.447,0 -2.619,1.172 -2.619,2.618 v 0 c 0,1.447 1.172,2.619 2.619,2.619 h 21.701996 c 1.447,0 2.619,-1.172 2.619,-2.619 z"
     fill="#231f20"
     id="path6097" />
  <path
     d="m 67.624944,10.4432 1e-4,18.9171 c 0.0126,4.6402 -3.2596,7.5261 -7.2392,7.5134 -3.967,0.0254 -7.2012,-2.8732 -7.2139,-7.5134 V 11.843 l -4.0175,-0.0508 0.0253,17.7206 c 0.0126,6.7507 5.0535,11.4418 11.2187,11.4418 6.1527,-0.0127 11.2062,-4.6911 11.2315,-11.4291 l -10e-5,-19.0696 c 0,-1.0679 -0.9854,-2.0595 -2.0593,-2.0214 -1.0738,-0.0381 -1.9329,0.9027 -1.9456,2.0087 z"
     fill="#f58220"
     id="path6099" />
</svg>
