<?xml version="1.0" encoding="UTF-8" standalone="no"?>
<svg
   xmlns:dc="http://purl.org/dc/elements/1.1/"
   xmlns:cc="http://creativecommons.org/ns#"
   xmlns:rdf="http://www.w3.org/1999/02/22-rdf-syntax-ns#"
   xmlns:svg="http://www.w3.org/2000/svg"
   xmlns="http://www.w3.org/2000/svg"
   width="112.76704"
   height="110.10275"
   viewBox="0 0 112.76704 110.10275"
   fill="none"
   version="1.1"
   id="svg3989">
  <metadata
     id="metadata3995">
    <rdf:RDF>
      <cc:Work
         rdf:about="">
        <dc:format>image/svg+xml</dc:format>
        <dc:type
           rdf:resource="http://purl.org/dc/dcmitype/StillImage" />
        <dc:title></dc:title>
      </cc:Work>
    </rdf:RDF>
  </metadata>
  <defs
     id="defs3993" />
  <path
     d="m 62.433886,76.422994 c 0.1907,2.201 -1.4385,4.143 -3.6391,4.337 l -52.0428001,4.597 c -2.2005,0.194 -4.1391,-1.433 -4.3298,-3.634 l -2.40699995,-27.7737 c -0.1908,-2.2009 1.43849995,-4.1426 3.63909995,-4.337 l 52.0427001,-4.5964 c 2.2006,-0.1944 4.1391,1.4322 4.3299,3.6331 z"
     fill="#f9c20a"
     fill-opacity="0.76"
     id="path3969" />
  <g
     style="mix-blend-mode:multiply"
     id="g3973"
     transform="translate(-24.826214,-31.000006)">
    <path
       d="M 103.772,35.2995 84.4173,48.4941 c -2.4393,1.6629 -1.2624,5.4788 1.6898,5.4788 h 38.7109 c 2.952,0 4.129,-3.8159 1.689,-5.4788 L 107.152,35.2995 c -1.019,-0.6949 -2.36,-0.6949 -3.38,0 z"
       fill="#faa61a"
       id="path3971" />
  </g>
  <path
     fill-rule="evenodd"
     clip-rule="evenodd"
     d="M 50.355386,0.80219367 6.0469859,29.763994 c -4.1383,2.7049 -2.2407,9.188 2.6893,9.188 h 2.6094001 v 35.964 h -0.058 c -4.0991001,0 -7.4221001,8.35 -7.4221001,12.488 0,4.138 3.323,7.493 7.4221001,7.493 h 1.1886 v -4.995 h -1.1886 c -1.3664001,0 -2.4740001,-1.118 -2.4740001,-2.498 0,-1.379 1.1076,-7.492 2.4740001,-7.492 h 80.1581 c 1.366,0 2.474,6.113 2.474,7.492 0,1.38 -1.108,2.498 -2.474,2.498 h -75.0111 v 4.995 h 75.0111 c 4.099,0 7.422,-3.355 7.422,-7.493 0,-3.969 -3.058,-12.213 -6.926,-12.471 v -31.9845 h -4.948 v 31.9675 h -13.9698 v -31.9675 h -4.948 v 31.9675 h -13.9629 v -31.9675 h -4.948 v 31.9675 h -13.9629 v -31.9675 h -4.948 v 31.9675 h -13.9605 v -35.964 h 13.9605 v 4e-4 h 4.948 v -4e-4 h 13.9629 v 4e-4 h 4.948 v -4e-4 h 13.9629 v 4e-4 h 4.948 v -4e-4 h 13.9698 v 4e-4 h 4.948 v -4e-4 h 2.861 c 4.86,0 6.808004,-6.334 2.802,-9.1122 L 55.846586,0.87799367 c -1.6472,-1.1424 -3.8136,-1.1724 -5.4912,-0.0758 z M 8.7362859,33.956894 53.044686,4.9950937 94.802786,33.956894 Z"
     fill="#231f20"
     id="path3975" />
  <path
     d="m 107.63679,80.951994 c 0,13.259 -10.715004,24.006996 -23.931004,24.006996 -13.2164,0 -23.9304,-10.747996 -23.9304,-24.006996 0,-13.2578 10.714,-24.0057 23.9304,-24.0057 13.216,0 23.931004,10.7479 23.931004,24.0057 z"
     fill="#ffffff"
     id="path3977" />
  <path
     fill-rule="evenodd"
     clip-rule="evenodd"
     d="m 83.705786,101.15899 c 11.107,0 20.131004,-9.035996 20.131004,-20.206996 0,-11.17 -9.024004,-20.2057 -20.131004,-20.2057 -11.1064,0 -20.1304,9.0357 -20.1304,20.2057 0,11.171 9.024,20.206996 20.1304,20.206996 z m 0,3.8 c 13.216,0 23.931004,-10.747996 23.931004,-24.006996 0,-13.2578 -10.715004,-24.0057 -23.931004,-24.0057 -13.2164,0 -23.9304,10.7479 -23.9304,24.0057 0,13.259 10.714,24.006996 23.9304,24.006996 z"
     fill="#ffffff"
     id="path3979" />
  <path
     fill-rule="evenodd"
     clip-rule="evenodd"
     d="m 95.296786,92.577994 c 0.819,-0.821 2.147,-0.821 2.965,0 l 13.891004,13.934996 c 0.819,0.821 0.819,2.153 0,2.974 -0.819,0.821 -2.147,0.821 -2.965,0 L 95.296786,95.552994 c -0.819,-0.822 -0.819,-2.153 0,-2.975 z"
     fill="#faa61a"
     id="path3981" />
  <path
     d="m 102.89579,81.367994 c 0,10.403 -8.407004,18.836996 -18.778004,18.836996 -10.3708,0 -18.778,-8.433996 -18.778,-18.836996 0,-10.404 8.4072,-18.8377 18.778,-18.8377 10.371,0 18.778004,8.4337 18.778004,18.8377 z"
     fill="#ffffff"
     id="path3983" />
  <path
     fill-rule="evenodd"
     clip-rule="evenodd"
     d="m 84.117786,96.204994 c 8.15,0 14.778,-6.631 14.778,-14.837 0,-8.207 -6.628,-14.8377 -14.778,-14.8377 -8.15,0 -14.778,6.6307 -14.778,14.8377 0,8.206 6.628,14.837 14.778,14.837 z m 0,3.999996 c 10.371,0 18.778004,-8.433996 18.778004,-18.836996 0,-10.404 -8.407004,-18.8377 -18.778004,-18.8377 -10.3708,0 -18.778,8.4337 -18.778,18.8377 0,10.403 8.4072,18.836996 18.778,18.836996 z"
     fill="#231f20"
     id="path3985" />
  <path
     d="m 82.144786,74.185994 c 0,0.947 0.752,1.709 1.709,1.709 0.957,0 1.709,-0.762 1.709,-1.709 -0.01,-0.967 -0.752,-1.719 -1.709,-1.719 -0.957,0 -1.709,0.752 -1.709,1.719 z m -2.569,12.783 c 0.01,0.761 0.538,1.25 1.358,1.25 h 6.074 c 0.82,0 1.348,-0.489 1.358,-1.25 0.009,-0.781 -0.518,-1.27 -1.358,-1.27 h -1.465 v -6.553 c 0,-0.791 -0.517,-1.279 -1.299,-1.279 h -3.037 c -0.84,0 -1.367,0.488 -1.367,1.27 0.01,0.761 0.537,1.25 1.367,1.25 h 1.67 v 5.312 h -1.943 c -0.84,0 -1.367,0.489 -1.358,1.27 z"
     fill="#231f20"
     id="path3987" />
</svg>
