<?xml version="1.0" encoding="utf-8"?>
<!-- Generator: Adobe Illustrator 24.3.0, SVG Export Plug-In . SVG Version: 6.00 Build 0)  -->
<svg version="1.1" id="Layer_1" xmlns="http://www.w3.org/2000/svg" xmlns:xlink="http://www.w3.org/1999/xlink" x="0px" y="0px"
	 viewBox="0 0 220 220" style="enable-background:new 0 0 220 220;" xml:space="preserve">
<style type="text/css">
	.st0{fill:#FFFFFF;}
</style>
<g>
	<rect x="68.9" y="1.2" class="st0" width="7.4" height="7.4"/>
	<rect x="129" y="15.9" class="st0" width="7.4" height="7.4"/>
	<polygon class="st0" points="144.1,15.9 144.1,23.7 151.5,23.7 158.9,23.7 158.9,15.9 151.5,15.9 	"/>
	<polygon class="st0" points="84,31.1 91.4,31.1 91.4,23.7 98.7,23.7 98.7,15.9 98.7,8.6 106.5,8.6 106.5,15.9 106.5,23.7 
		106.5,31.1 98.7,31.1 98.7,38.5 98.7,46.2 106.5,46.2 106.5,53.6 106.5,61.3 98.7,61.3 98.7,68.7 98.7,76.1 98.7,83.8 98.7,91.2 
		91.4,91.2 91.4,98.6 84,98.6 76.2,98.6 68.9,98.6 68.9,91.2 61.1,91.2 61.1,98.6 61.1,106.3 68.9,106.3 68.9,113.7 61.1,113.7 
		61.1,121.1 68.9,121.1 76.2,121.1 76.2,113.7 84,113.7 84,106.3 91.4,106.3 91.4,113.7 91.4,121.1 98.7,121.1 98.7,128.8 
		106.5,128.8 106.5,136.2 113.9,136.2 113.9,128.8 113.9,121.1 106.5,121.1 106.5,113.7 98.7,113.7 98.7,106.3 98.7,98.6 
		106.5,98.6 106.5,91.2 113.9,91.2 113.9,83.8 113.9,76.1 113.9,68.7 113.9,61.3 113.9,53.6 113.9,46.2 121.3,46.2 121.3,38.5 
		121.3,31.1 129,31.1 129,23.7 121.3,23.7 113.9,23.7 113.9,15.9 121.3,15.9 129,15.9 129,8.6 136.4,8.6 144.1,8.6 151.5,8.6 
		151.5,1.2 144.1,1.2 136.4,1.2 129,1.2 121.3,1.2 113.9,1.2 106.5,1.2 98.7,1.2 91.4,1.2 91.4,8.6 84,8.6 84,15.9 76.2,15.9 
		68.9,15.9 68.9,8.6 61.1,8.6 61.1,15.9 61.1,23.7 68.9,23.7 68.9,31.1 76.2,31.1 	"/>
	<rect x="84" y="38.5" class="st0" width="7.4" height="7.4"/>
	<polygon class="st0" points="129,46.2 136.4,46.2 136.4,53.6 144.1,53.6 144.1,46.2 151.5,46.2 151.5,38.5 144.1,38.5 144.1,31.1 
		136.4,31.1 129,31.1 129,38.5 	"/>
	<rect x="76.2" y="46.2" class="st0" width="7.4" height="7.4"/>
	<polygon class="st0" points="129,46.2 121.3,46.2 121.3,53.6 121.3,61.3 129,61.3 136.4,61.3 136.4,53.6 129,53.6 	"/>
	<rect x="151.5" y="46.2" class="st0" width="7.4" height="7.4"/>
	<polygon class="st0" points="76.2,61.3 76.2,53.6 68.9,53.6 68.9,46.2 76.2,46.2 76.2,38.5 68.9,38.5 68.9,31.1 61.1,31.1 
		61.1,38.5 61.1,46.2 61.1,53.6 61.1,61.3 68.9,61.3 	"/>
	<polygon class="st0" points="91.4,61.3 98.7,61.3 98.7,53.6 98.7,46.2 91.4,46.2 91.4,53.6 	"/>
	<polygon class="st0" points="8.7,61.3 1,61.3 1,68.7 8.7,68.7 16.1,68.7 16.1,61.3 	"/>
	<rect x="23.8" y="61.3" class="st0" width="7.4" height="7.4"/>
	<polygon class="st0" points="61.1,68.7 61.1,61.3 53.7,61.3 46.3,61.3 46.3,68.7 53.7,68.7 	"/>
	<polygon class="st0" points="211.6,68.7 211.6,61.3 203.9,61.3 196.5,61.3 196.5,68.7 203.9,68.7 	"/>
	<rect x="129" y="68.7" class="st0" width="7.4" height="7.4"/>
	<rect x="211.6" y="68.7" class="st0" width="7.4" height="7.4"/>
	<polygon class="st0" points="76.2,83.8 84,83.8 84,76.1 91.4,76.1 91.4,68.7 84,68.7 84,61.3 76.2,61.3 76.2,68.7 76.2,76.1 
		68.9,76.1 68.9,68.7 61.1,68.7 61.1,76.1 61.1,83.8 68.9,83.8 	"/>
	<rect x="121.3" y="76.1" class="st0" width="7.4" height="7.4"/>
	<polygon class="st0" points="196.5,76.1 196.5,68.7 189.1,68.7 189.1,76.1 189.1,83.8 196.5,83.8 196.5,91.2 203.9,91.2 
		203.9,98.6 211.6,98.6 219,98.6 219,91.2 211.6,91.2 211.6,83.8 211.6,76.1 203.9,76.1 	"/>
	<rect x="1" y="83.8" class="st0" width="7.4" height="7.4"/>
	<rect x="53.7" y="83.8" class="st0" width="7.4" height="7.4"/>
	<polygon class="st0" points="181.4,83.8 174,83.8 174,91.2 181.4,91.2 189.1,91.2 189.1,83.8 	"/>
	<rect x="46.3" y="91.2" class="st0" width="7.4" height="7.4"/>
	<rect x="129" y="91.2" class="st0" width="7.4" height="7.4"/>
	<polygon class="st0" points="158.9,91.2 158.9,83.8 166.6,83.8 166.6,76.1 174,76.1 174,68.7 181.4,68.7 189.1,68.7 189.1,61.3 
		181.4,61.3 174,61.3 166.6,61.3 166.6,68.7 158.9,68.7 151.5,68.7 151.5,76.1 144.1,76.1 136.4,76.1 136.4,83.8 136.4,91.2 
		144.1,91.2 144.1,83.8 151.5,83.8 151.5,91.2 151.5,98.6 144.1,98.6 136.4,98.6 136.4,106.3 136.4,113.7 144.1,113.7 144.1,106.3 
		151.5,106.3 151.5,113.7 158.9,113.7 158.9,106.3 158.9,98.6 166.6,98.6 174,98.6 174,91.2 166.6,91.2 	"/>
	<rect x="189.1" y="91.2" class="st0" width="7.4" height="7.4"/>
	<rect x="106.5" y="98.6" class="st0" width="7.4" height="7.4"/>
	<rect x="174" y="98.6" class="st0" width="7.4" height="7.4"/>
	<polygon class="st0" points="31.2,113.7 31.2,106.3 38.6,106.3 38.6,98.6 38.6,91.2 46.3,91.2 46.3,83.8 53.7,83.8 53.7,76.1 
		46.3,76.1 46.3,68.7 38.6,68.7 31.2,68.7 31.2,76.1 23.8,76.1 23.8,68.7 16.1,68.7 16.1,76.1 8.7,76.1 8.7,83.8 16.1,83.8 
		23.8,83.8 31.2,83.8 31.2,91.2 23.8,91.2 23.8,98.6 16.1,98.6 16.1,91.2 8.7,91.2 8.7,98.6 1,98.6 1,106.3 8.7,106.3 16.1,106.3 
		16.1,113.7 16.1,121.1 23.8,121.1 23.8,113.7 	"/>
	<polygon class="st0" points="53.7,106.3 46.3,106.3 38.6,106.3 38.6,113.7 46.3,113.7 53.7,113.7 61.1,113.7 61.1,106.3 	"/>
	<rect x="1" y="113.7" class="st0" width="7.4" height="7.4"/>
	<polygon class="st0" points="38.6,113.7 31.2,113.7 31.2,121.1 23.8,121.1 23.8,128.8 31.2,128.8 38.6,128.8 38.6,121.1 	"/>
	<polygon class="st0" points="211.6,113.7 219,113.7 219,106.3 211.6,106.3 203.9,106.3 196.5,106.3 189.1,106.3 189.1,113.7 
		189.1,121.1 196.5,121.1 196.5,113.7 203.9,113.7 203.9,121.1 203.9,128.8 211.6,128.8 211.6,121.1 	"/>
	<polygon class="st0" points="8.7,128.8 8.7,136.2 16.1,136.2 16.1,128.8 16.1,121.1 8.7,121.1 	"/>
	<rect x="46.3" y="121.1" class="st0" width="7.4" height="7.4"/>
	<polygon class="st0" points="158.9,128.8 166.6,128.8 166.6,121.1 166.6,113.7 158.9,113.7 158.9,121.1 	"/>
	<rect x="189.1" y="128.8" class="st0" width="7.4" height="7.4"/>
	<rect x="1" y="136.2" class="st0" width="7.4" height="7.4"/>
	<rect x="16.1" y="136.2" class="st0" width="7.4" height="7.4"/>
	<polygon class="st0" points="46.3,143.9 53.7,143.9 53.7,136.2 46.3,136.2 46.3,128.8 38.6,128.8 38.6,136.2 31.2,136.2 
		31.2,143.9 31.2,151.3 38.6,151.3 38.6,143.9 	"/>
	<polygon class="st0" points="98.7,143.9 98.7,151.3 106.5,151.3 106.5,143.9 106.5,136.2 98.7,136.2 	"/>
	<path class="st0" d="M166.6,143.9h-7.4v7.4h-7.4v7.4v7.4v7.4v7.4v7.4h7.4h7.4v7.4h7.4v-7.4h7.4v7.4v7.4v7.4H174h-7.4v7.4h7.4h7.4
		h7.4v-6.4v-7.4h7.4h7.4v-7.4h7.4v-7.4h-7.4h-7.4h-7.4v-8.1h7.4h7.4h7.4v-7.4v-7.4h7.4V159h-7.4h-7.4v-7.4h-7.4v7.4v7.4h7.4v7.4
		h-7.4h-7.4v-7.4V159v-7.4h-7.4H174v-7.4h7.4v-7.4v-7.4v-7.4H174v7.4h-7.4v7.4V143.9z M181.4,158.7v7.4v7.4v7.4H174h-7.4h-7.4v-7.4
		v-7.4v-7.4h7.4h7.4H181.4z"/>
	<polygon class="st0" points="68.9,151.3 68.9,143.9 61.1,143.9 53.7,143.9 53.7,151.3 46.3,151.3 38.6,151.3 38.6,158.7 
		46.3,158.7 53.7,158.7 61.1,158.7 61.1,151.3 	"/>
	<rect x="113.9" y="143.9" class="st0" width="7.4" height="7.4"/>
	<polygon class="st0" points="144.1,151.3 151.5,151.3 151.5,143.9 144.1,143.9 136.4,143.9 136.4,136.2 136.4,128.8 144.1,128.8 
		151.5,128.8 151.5,121.1 144.1,121.1 136.4,121.1 136.4,113.7 129,113.7 129,121.1 121.3,121.1 121.3,128.8 121.3,136.2 129,136.2 
		129,143.9 129,151.3 136.4,151.3 	"/>
	<polygon class="st0" points="219,151.3 219,143.9 219,136.2 219,128.8 211.6,128.8 211.6,136.2 203.9,136.2 203.9,143.9 
		203.9,151.3 211.6,151.3 	"/>
	<rect x="1" y="151.3" class="st0" width="7.4" height="7.4"/>
	<rect x="23.8" y="151.3" class="st0" width="7.4" height="7.4"/>
	<rect x="106.5" y="151.3" class="st0" width="7.4" height="7.4"/>
	<polygon class="st0" points="121.3,166.4 129,166.4 136.4,166.4 136.4,158.7 129,158.7 129,151.3 121.3,151.3 121.3,158.7 	"/>
	<path class="st0" d="M113.9,173.8v-7.4h-7.4V159h-7.4v-7.4h-7.4v-7.4h-7.4v-7.4v-7.4h7.4v-7.4h-7.4h-7.4v7.4h-7.4v7.4h7.4v7.4v7.4
		h7.4v7.4h-7.4v-7.4h-7.4v7.4h-7.4v7.4v7.4h7.4v7.4v7.4h7.4h7.4v7.4v7.4v7.4h7.4v-7.4V196v-7.4v-7.4h7.4h7.4v-7.4H113.9z
		 M76.2,181.2v-7.4v-7.4h7.4v7.4v7.4H76.2z"/>
	<rect x="166.6" y="166.4" class="st0" width="7.4" height="7.4"/>
	<rect x="136.4" y="173.8" class="st0" width="7.4" height="7.4"/>
	<g>
		<path class="st0" d="M211.6,1.2h-7.4h-7.4h-7.4h-7.4h-7.4h-8.1v7.4v7.4v7.4v7.4v7.4v7.4v7.4h7.4h7.4h7.4h7.4h7.4h7.4h7.4v-7.4
			v-7.4v-7.4v-7.4v-7.4V8.6V1.2H211.6z M211.6,15.9v7.4v7.4v7.4v7.4h-7.4h-7.4h-7.4h-7.4h-7.4v-7.4v-7.4v-7.4v-7.4V8.6h7.4h7.4h7.4
			h7.4h7.4V15.9z"/>
		<polygon class="st0" points="189.1,15.9 181.4,15.9 181.4,23.7 181.4,31.1 181.4,38.5 189.1,38.5 196.5,38.5 203.9,38.5 
			203.9,31.1 203.9,23.7 203.9,15.9 196.5,15.9 		"/>
		<polygon class="st0" points="31.2,38.5 38.6,38.5 38.6,31.1 38.6,23.7 38.6,15.9 31.2,15.9 23.8,15.9 16.1,15.9 16.1,23.7 
			16.1,31.1 16.1,38.5 23.8,38.5 		"/>
		<path class="st0" d="M16.1,53.6h7.4h7.4h7.4h7.4h7.4v-7.4v-7.4v-7.4V24v-7.4V9.2V1.8h-7.4h-7.4h-7.4h-7.4h-7.4H8.7H1.3v7.4v7.4V24
			v7.4v7.4v7.4v7.4h7.4H16.1z M8.7,38.5v-7.4v-7.4v-7.4V8.9h7.4h7.4h7.4h7.4h7.4v7.4v7.4v7.4v7.4v7.4h-7.4h-7.4h-7.4h-7.4H8.7V38.5z
			"/>
		<path class="st0" d="M38.6,166.4h-7.4h-7.4h-7.4H8.7H1.3v7.4v7.4v7.4v7.4v7.4v7.4v7.4h7.4h7.4h7.4h7.4h7.4h7.4h7.4v-6.7v-7.4v-7.4
			v-7.4v-8.1v-7.4v-7.4h-7.4L38.6,166.4L38.6,166.4z M46.3,181.2v7.4v7.4v7.4v7.4H39h-7.4h-7.4h-7.4H8.7v-7.4V196v-7.4v-7.4v-7.4
			h7.4h7.4h7.4h7.4h7.4v7.4H46.3z"/>
		<polygon class="st0" points="23.8,181.2 16.1,181.2 16.1,188.9 16.1,196.3 16.1,204.1 23.8,204.1 31.2,204.1 38.6,204.1 
			38.6,196.3 38.6,188.9 38.6,181.2 31.2,181.2 		"/>
	</g>
	<rect x="129" y="181.2" class="st0" width="7.4" height="7.4"/>
	<rect x="61.1" y="188.9" class="st0" width="7.4" height="7.4"/>
	<polygon class="st0" points="113.9,188.9 113.9,181.2 106.5,181.2 106.5,188.9 98.7,188.9 98.7,196.3 98.7,204.1 106.5,204.1 
		113.9,204.1 113.9,196.3 	"/>
	<polygon class="st0" points="166.6,196.3 158.9,196.3 158.9,204.1 151.5,204.1 151.5,196.3 151.5,188.9 144.1,188.9 136.4,188.9 
		136.4,196.3 129,196.3 121.3,196.3 121.3,204.1 129,204.1 129,211.4 121.3,211.4 121.3,218.8 129,218.8 136.4,218.8 136.4,211.4 
		136.4,204.1 144.1,204.1 144.1,211.4 151.5,211.4 151.5,218.8 158.9,218.8 158.9,211.4 166.6,211.4 166.6,204.1 	"/>
	<rect x="211.6" y="196.3" class="st0" width="7.4" height="7.4"/>
	<polygon class="st0" points="61.1,211.4 61.1,218.8 68.9,218.8 68.9,211.4 68.9,204.1 61.1,204.1 	"/>
	<rect x="113.9" y="204.1" class="st0" width="7.4" height="7.4"/>
	<polygon class="st0" points="203.9,211.4 203.9,218.8 211.6,218.8 211.6,211.4 211.6,204.1 203.9,204.1 	"/>
	<polygon class="st0" points="98.7,218.8 106.5,218.8 106.5,211.4 98.7,211.4 91.4,211.4 91.4,218.8 	"/>
</g>
</svg>
